<mxfile host="Electron" modified="2024-02-15T14:42:12.083Z" agent="Mozilla/5.0 (Windows NT 10.0; Win64; x64) AppleWebKit/537.36 (KHTML, like Gecko) draw.io/22.1.16 Chrome/120.0.6099.109 Electron/28.1.0 Safari/537.36" etag="3zgSxRIHKXTKhIt0Xeho" version="22.1.16" type="device">
  <diagram name="Page-1" id="K99bPmBn-CnV5g3CWrJr">
    <mxGraphModel dx="2500" dy="1742" grid="0" gridSize="10" guides="1" tooltips="1" connect="1" arrows="1" fold="1" page="0" pageScale="1" pageWidth="827" pageHeight="1169" math="1" shadow="0">
      <root>
        <mxCell id="0" />
        <mxCell id="1" parent="0" />
        <mxCell id="_x-ajN5ebLYVBwODIwIi-4" value="$$Objective function: Max(\sum_i{\sum_j{\sum_v{\sum_t{x_{ijv}^tQ_{ij}^t}}}})$$" style="rounded=1;whiteSpace=wrap;html=1;fontSize=30;fillColor=#d5e8d4;strokeColor=#82b366;fontStyle=0" vertex="1" parent="1">
          <mxGeometry x="-381" y="-83" width="1651" height="110" as="geometry" />
        </mxCell>
        <mxCell id="_x-ajN5ebLYVBwODIwIi-7" value="" style="endArrow=none;dashed=1;html=1;rounded=0;fontSize=12;startSize=8;endSize=8;curved=1;entryX=0.678;entryY=0.008;entryDx=0;entryDy=0;entryPerimeter=0;" edge="1" parent="1">
          <mxGeometry width="50" height="50" relative="1" as="geometry">
            <mxPoint x="486" y="622" as="sourcePoint" />
            <mxPoint x="486.00200000000007" y="75.99800000000003" as="targetPoint" />
          </mxGeometry>
        </mxCell>
        <mxCell id="_x-ajN5ebLYVBwODIwIi-13" style="edgeStyle=none;curved=1;rounded=0;orthogonalLoop=1;jettySize=auto;html=1;exitX=1;exitY=0.5;exitDx=0;exitDy=0;entryX=0;entryY=0.5;entryDx=0;entryDy=0;fontSize=12;startSize=8;endSize=8;fillColor=#dae8fc;strokeColor=#6c8ebf;" edge="1" parent="1" source="_x-ajN5ebLYVBwODIwIi-14" target="_x-ajN5ebLYVBwODIwIi-10">
          <mxGeometry relative="1" as="geometry" />
        </mxCell>
        <mxCell id="_x-ajN5ebLYVBwODIwIi-8" value="$$I_i^t = I_i^{t-1}-\sum_i{Q_{ij}^t}+\sum{S_i^t}$$" style="text;strokeColor=#b85450;fillColor=#f8cecc;html=1;align=center;verticalAlign=middle;whiteSpace=wrap;rounded=0;fontSize=16;" vertex="1" parent="1">
          <mxGeometry x="60" y="207" width="255" height="61" as="geometry" />
        </mxCell>
        <mxCell id="_x-ajN5ebLYVBwODIwIi-58" style="edgeStyle=none;curved=1;rounded=0;orthogonalLoop=1;jettySize=auto;html=1;entryX=0;entryY=0.5;entryDx=0;entryDy=0;fontSize=12;startSize=8;endSize=8;exitX=1;exitY=0.5;exitDx=0;exitDy=0;" edge="1" parent="1" source="_x-ajN5ebLYVBwODIwIi-10" target="_x-ajN5ebLYVBwODIwIi-57">
          <mxGeometry relative="1" as="geometry" />
        </mxCell>
        <mxCell id="_x-ajN5ebLYVBwODIwIi-10" value="$$I_j^t = I_j^{t-1}-C_{nj}^t+\sum{Q_{ij}^t}*(1-\delta)$$" style="text;strokeColor=#b85450;fillColor=#f8cecc;html=1;align=center;verticalAlign=middle;whiteSpace=wrap;rounded=0;fontSize=16;strokeWidth=1;" vertex="1" parent="1">
          <mxGeometry x="672" y="203" width="311" height="65" as="geometry" />
        </mxCell>
        <mxCell id="_x-ajN5ebLYVBwODIwIi-15" value="" style="edgeStyle=none;curved=1;rounded=0;orthogonalLoop=1;jettySize=auto;html=1;exitX=1;exitY=0.5;exitDx=0;exitDy=0;entryX=0;entryY=0.5;entryDx=0;entryDy=0;fontSize=12;startSize=8;endSize=8;fillColor=#dae8fc;strokeColor=#6c8ebf;" edge="1" parent="1" source="_x-ajN5ebLYVBwODIwIi-8" target="_x-ajN5ebLYVBwODIwIi-17">
          <mxGeometry relative="1" as="geometry">
            <mxPoint x="409" y="260" as="sourcePoint" />
            <mxPoint x="569" y="112" as="targetPoint" />
          </mxGeometry>
        </mxCell>
        <mxCell id="_x-ajN5ebLYVBwODIwIi-19" value="?" style="edgeLabel;html=1;align=center;verticalAlign=middle;resizable=0;points=[];fontSize=16;" vertex="1" connectable="0" parent="_x-ajN5ebLYVBwODIwIi-15">
          <mxGeometry x="-0.0235" relative="1" as="geometry">
            <mxPoint as="offset" />
          </mxGeometry>
        </mxCell>
        <mxCell id="_x-ajN5ebLYVBwODIwIi-14" value="$$\sum{Q_{ij}^t} = d_j^t$$" style="rounded=0;whiteSpace=wrap;html=1;fontSize=16;fillColor=#dae8fc;strokeColor=#6c8ebf;" vertex="1" parent="1">
          <mxGeometry x="504" y="110" width="120" height="60" as="geometry" />
        </mxCell>
        <mxCell id="_x-ajN5ebLYVBwODIwIi-18" style="edgeStyle=none;curved=1;rounded=0;orthogonalLoop=1;jettySize=auto;html=1;fontSize=12;startSize=8;endSize=8;" edge="1" parent="1" source="_x-ajN5ebLYVBwODIwIi-17" target="_x-ajN5ebLYVBwODIwIi-14">
          <mxGeometry relative="1" as="geometry" />
        </mxCell>
        <mxCell id="_x-ajN5ebLYVBwODIwIi-17" value="$$x_{ijv}^t&lt;br&gt;$$" style="rounded=0;whiteSpace=wrap;html=1;fontSize=16;fillColor=#dae8fc;strokeColor=#6c8ebf;" vertex="1" parent="1">
          <mxGeometry x="347" y="110" width="110" height="60" as="geometry" />
        </mxCell>
        <mxCell id="_x-ajN5ebLYVBwODIwIi-21" style="edgeStyle=none;curved=1;rounded=0;orthogonalLoop=1;jettySize=auto;html=1;exitX=1;exitY=0;exitDx=0;exitDy=0;fontSize=12;startSize=8;endSize=8;entryX=0;entryY=0.5;entryDx=0;entryDy=0;" edge="1" parent="1" source="_x-ajN5ebLYVBwODIwIi-20" target="_x-ajN5ebLYVBwODIwIi-22">
          <mxGeometry relative="1" as="geometry">
            <mxPoint x="869.1428920200897" y="18.142878941127265" as="targetPoint" />
          </mxGeometry>
        </mxCell>
        <mxCell id="_x-ajN5ebLYVBwODIwIi-20" value="" style="ellipse;whiteSpace=wrap;html=1;aspect=fixed;fontSize=16;fillColor=none;fillStyle=hatch;" vertex="1" parent="1">
          <mxGeometry x="587" y="120" width="40" height="40" as="geometry" />
        </mxCell>
        <mxCell id="_x-ajN5ebLYVBwODIwIi-22" value="Demand Prediction ML" style="label;whiteSpace=wrap;html=1;align=center;verticalAlign=bottom;spacingLeft=0;spacingBottom=4;imageAlign=center;imageVerticalAlign=top;image=img/clipart/Gear_128x128.png;fontSize=16;" vertex="1" parent="1">
          <mxGeometry x="861" y="-216" width="120" height="101" as="geometry" />
        </mxCell>
        <mxCell id="_x-ajN5ebLYVBwODIwIi-23" style="edgeStyle=none;curved=1;rounded=0;orthogonalLoop=1;jettySize=auto;html=1;entryX=0;entryY=0.5;entryDx=0;entryDy=0;fontSize=12;startSize=8;endSize=8;" edge="1" parent="1" source="_x-ajN5ebLYVBwODIwIi-22" target="_x-ajN5ebLYVBwODIwIi-22">
          <mxGeometry relative="1" as="geometry" />
        </mxCell>
        <mxCell id="_x-ajN5ebLYVBwODIwIi-25" value="$$Q_{ij}^t \leq C_{VQ}$$" style="rounded=0;whiteSpace=wrap;html=1;fontSize=16;fillColor=#ffe6cc;strokeColor=#d79b00;" vertex="1" parent="1">
          <mxGeometry x="434" y="285" width="120" height="60" as="geometry" />
        </mxCell>
        <mxCell id="_x-ajN5ebLYVBwODIwIi-26" value="$$Q_{ij}^t \leq C_{DZ}$$" style="rounded=0;whiteSpace=wrap;html=1;fontSize=16;fillColor=#ffe6cc;strokeColor=#d79b00;" vertex="1" parent="1">
          <mxGeometry x="580" y="285" width="120" height="60" as="geometry" />
        </mxCell>
        <mxCell id="_x-ajN5ebLYVBwODIwIi-27" value="$$\sum_i{\sum_j{Q_{ij}^t*\delta_{ij}}} \leq M$$" style="rounded=0;whiteSpace=wrap;html=1;fontSize=16;fillColor=#bac8d3;strokeColor=#23445d;" vertex="1" parent="1">
          <mxGeometry x="391" y="501" width="214" height="67" as="geometry" />
        </mxCell>
        <mxCell id="_x-ajN5ebLYVBwODIwIi-31" value="$$I_i^t \leq C_{Di}$$" style="rounded=0;whiteSpace=wrap;html=1;fontSize=16;fillColor=#ffe6cc;strokeColor=#d79b00;" vertex="1" parent="1">
          <mxGeometry x="129" y="285" width="120" height="60" as="geometry" />
        </mxCell>
        <mxCell id="_x-ajN5ebLYVBwODIwIi-32" value="Current LVL" style="text;html=1;align=center;verticalAlign=middle;resizable=0;points=[];autosize=1;strokeColor=none;fillColor=none;fontSize=16;fontColor=#FF3333;fontStyle=1" vertex="1" parent="1">
          <mxGeometry x="138" y="170" width="109" height="31" as="geometry" />
        </mxCell>
        <mxCell id="_x-ajN5ebLYVBwODIwIi-33" value="Current LVL" style="text;html=1;align=center;verticalAlign=middle;resizable=0;points=[];autosize=1;strokeColor=none;fillColor=none;fontSize=16;fontColor=#FF3333;fontStyle=1" vertex="1" parent="1">
          <mxGeometry x="776" y="167" width="109" height="31" as="geometry" />
        </mxCell>
        <mxCell id="_x-ajN5ebLYVBwODIwIi-34" value="Distributor (i)" style="text;html=1;align=center;verticalAlign=middle;resizable=0;points=[];autosize=1;strokeColor=none;fillColor=none;fontSize=25;fontStyle=1" vertex="1" parent="1">
          <mxGeometry x="129" y="624" width="176" height="42" as="geometry" />
        </mxCell>
        <mxCell id="_x-ajN5ebLYVBwODIwIi-35" value="Costumer (j)" style="text;html=1;align=center;verticalAlign=middle;resizable=0;points=[];autosize=1;strokeColor=none;fillColor=none;fontSize=25;fontStyle=1" vertex="1" parent="1">
          <mxGeometry x="735" y="624" width="165" height="42" as="geometry" />
        </mxCell>
        <mxCell id="_x-ajN5ebLYVBwODIwIi-38" style="edgeStyle=none;curved=1;rounded=0;orthogonalLoop=1;jettySize=auto;html=1;entryX=0;entryY=0.5;entryDx=0;entryDy=0;fontSize=12;startSize=8;endSize=8;" edge="1" parent="1" source="_x-ajN5ebLYVBwODIwIi-37" target="_x-ajN5ebLYVBwODIwIi-39">
          <mxGeometry relative="1" as="geometry" />
        </mxCell>
        <mxCell id="_x-ajN5ebLYVBwODIwIi-37" value="Supplier" style="rounded=0;whiteSpace=wrap;html=1;fontSize=19;fillColor=#fad9d5;strokeColor=#ae4132;fontStyle=1" vertex="1" parent="1">
          <mxGeometry x="-359" y="207" width="120" height="60" as="geometry" />
        </mxCell>
        <mxCell id="_x-ajN5ebLYVBwODIwIi-40" style="edgeStyle=none;curved=1;rounded=0;orthogonalLoop=1;jettySize=auto;html=1;entryX=0;entryY=0.5;entryDx=0;entryDy=0;fontSize=12;startSize=8;endSize=8;exitX=1;exitY=0.5;exitDx=0;exitDy=0;" edge="1" parent="1" source="_x-ajN5ebLYVBwODIwIi-39" target="_x-ajN5ebLYVBwODIwIi-8">
          <mxGeometry relative="1" as="geometry" />
        </mxCell>
        <mxCell id="_x-ajN5ebLYVBwODIwIi-39" value="$$\sum{S_i^t}$$" style="rounded=0;whiteSpace=wrap;html=1;fontSize=16;fillColor=#dae8fc;strokeColor=#6c8ebf;" vertex="1" parent="1">
          <mxGeometry x="-147" y="207" width="120" height="60" as="geometry" />
        </mxCell>
        <mxCell id="_x-ajN5ebLYVBwODIwIi-41" value="Supplier" style="text;html=1;align=center;verticalAlign=middle;resizable=0;points=[];autosize=1;strokeColor=none;fillColor=none;fontSize=25;fontStyle=1" vertex="1" parent="1">
          <mxGeometry x="-352" y="628" width="118" height="42" as="geometry" />
        </mxCell>
        <mxCell id="_x-ajN5ebLYVBwODIwIi-42" value="Vehicle (v)" style="text;html=1;align=center;verticalAlign=middle;resizable=0;points=[];autosize=1;strokeColor=none;fillColor=none;fontSize=25;fontStyle=1" vertex="1" parent="1">
          <mxGeometry x="438" y="628" width="142" height="42" as="geometry" />
        </mxCell>
        <mxCell id="_x-ajN5ebLYVBwODIwIi-43" value="Transfered" style="text;html=1;align=center;verticalAlign=middle;resizable=0;points=[];autosize=1;strokeColor=none;fillColor=none;fontSize=16;fontColor=#0000FF;fontStyle=1" vertex="1" parent="1">
          <mxGeometry x="434" y="82" width="100" height="31" as="geometry" />
        </mxCell>
        <mxCell id="_x-ajN5ebLYVBwODIwIi-44" value="Max allowable drug loss" style="text;html=1;align=center;verticalAlign=middle;resizable=0;points=[];autosize=1;strokeColor=none;fillColor=none;fontSize=16;fontColor=#000000;fontStyle=1" vertex="1" parent="1">
          <mxGeometry x="397" y="470" width="202" height="31" as="geometry" />
        </mxCell>
        <mxCell id="_x-ajN5ebLYVBwODIwIi-45" value="Transfered" style="text;html=1;align=center;verticalAlign=middle;resizable=0;points=[];autosize=1;strokeColor=none;fillColor=none;fontSize=16;fontColor=#0000FF;fontStyle=1" vertex="1" parent="1">
          <mxGeometry x="-137" y="176" width="100" height="31" as="geometry" />
        </mxCell>
        <mxCell id="_x-ajN5ebLYVBwODIwIi-48" value="$$x_{ijv}*t_{ij} \leq T_{Dmax} + T_{out}$$" style="rounded=0;whiteSpace=wrap;html=1;fontSize=16;fillColor=#b1ddf0;strokeColor=#10739e;" vertex="1" parent="1">
          <mxGeometry x="347" y="185" width="280" height="60" as="geometry" />
        </mxCell>
        <mxCell id="_x-ajN5ebLYVBwODIwIi-49" value="max allowable transport time" style="text;html=1;align=center;verticalAlign=middle;resizable=0;points=[];autosize=1;strokeColor=none;fillColor=none;fontSize=16;fontColor=#0000FF;fontStyle=1" vertex="1" parent="1">
          <mxGeometry x="367.5" y="239" width="239" height="31" as="geometry" />
        </mxCell>
        <mxCell id="_x-ajN5ebLYVBwODIwIi-50" value="$$\sum_i{Q_{ij}^t \leq Q_S}$$" style="rounded=0;whiteSpace=wrap;html=1;fontSize=16;fillColor=#ffe6cc;strokeColor=#d79b00;" vertex="1" parent="1">
          <mxGeometry x="-69" y="285" width="120" height="60" as="geometry" />
        </mxCell>
        <mxCell id="_x-ajN5ebLYVBwODIwIi-51" value="limitation for &lt;br&gt;capacity in zones" style="text;html=1;align=center;verticalAlign=middle;resizable=0;points=[];autosize=1;strokeColor=none;fillColor=none;fontSize=16;fontColor=#FF9933;fontStyle=1" vertex="1" parent="1">
          <mxGeometry x="570" y="345" width="151" height="50" as="geometry" />
        </mxCell>
        <mxCell id="_x-ajN5ebLYVBwODIwIi-53" value="limitation for &lt;br&gt;capacity in vehicle" style="text;html=1;align=center;verticalAlign=middle;resizable=0;points=[];autosize=1;strokeColor=none;fillColor=none;fontSize=16;fontColor=#FF9933;fontStyle=1" vertex="1" parent="1">
          <mxGeometry x="414.5" y="345" width="159" height="50" as="geometry" />
        </mxCell>
        <mxCell id="_x-ajN5ebLYVBwODIwIi-54" value="limitation for &lt;br&gt;capacity in distributor" style="text;html=1;align=center;verticalAlign=middle;resizable=0;points=[];autosize=1;strokeColor=none;fillColor=none;fontSize=16;fontColor=#FF9933;fontStyle=1" vertex="1" parent="1">
          <mxGeometry x="96.5" y="345" width="185" height="50" as="geometry" />
        </mxCell>
        <mxCell id="_x-ajN5ebLYVBwODIwIi-55" value="limitation for &lt;br&gt;supplier input and &lt;br&gt;distributor output" style="text;html=1;align=center;verticalAlign=middle;resizable=0;points=[];autosize=1;strokeColor=none;fillColor=none;fontSize=16;fontColor=#FF9933;fontStyle=1" vertex="1" parent="1">
          <mxGeometry x="-87.5" y="345" width="157" height="70" as="geometry" />
        </mxCell>
        <mxCell id="_x-ajN5ebLYVBwODIwIi-56" value="" style="endArrow=none;dashed=1;html=1;rounded=0;fontSize=12;startSize=8;endSize=8;curved=1;entryX=0.678;entryY=0.008;entryDx=0;entryDy=0;entryPerimeter=0;" edge="1" parent="1">
          <mxGeometry width="50" height="50" relative="1" as="geometry">
            <mxPoint x="-92" y="628" as="sourcePoint" />
            <mxPoint x="-91.99799999999993" y="81.99800000000003" as="targetPoint" />
          </mxGeometry>
        </mxCell>
        <mxCell id="_x-ajN5ebLYVBwODIwIi-57" value="$$C_{nj}^t$$" style="rounded=0;whiteSpace=wrap;html=1;fontSize=16;fillColor=#dae8fc;strokeColor=#6c8ebf;" vertex="1" parent="1">
          <mxGeometry x="1123" y="100" width="120" height="60" as="geometry" />
        </mxCell>
        <mxCell id="_x-ajN5ebLYVBwODIwIi-60" value="Consumption Rate" style="text;html=1;align=center;verticalAlign=middle;resizable=0;points=[];autosize=1;strokeColor=none;fillColor=none;fontSize=16;fontColor=#0000FF;fontStyle=1" vertex="1" parent="1">
          <mxGeometry x="959" y="165" width="160" height="31" as="geometry" />
        </mxCell>
        <mxCell id="_x-ajN5ebLYVBwODIwIi-61" style="edgeStyle=none;curved=1;rounded=0;orthogonalLoop=1;jettySize=auto;html=1;entryX=1.006;entryY=0.612;entryDx=0;entryDy=0;entryPerimeter=0;fontSize=12;startSize=8;endSize=8;" edge="1" parent="1" source="_x-ajN5ebLYVBwODIwIi-10" target="_x-ajN5ebLYVBwODIwIi-27">
          <mxGeometry relative="1" as="geometry">
            <Array as="points">
              <mxPoint x="803" y="482" />
            </Array>
          </mxGeometry>
        </mxCell>
        <mxCell id="_x-ajN5ebLYVBwODIwIi-62" value="Drug loss" style="edgeLabel;html=1;align=center;verticalAlign=middle;resizable=0;points=[];fontSize=16;fontStyle=1" vertex="1" connectable="0" parent="_x-ajN5ebLYVBwODIwIi-61">
          <mxGeometry x="0.2575" y="-35" relative="1" as="geometry">
            <mxPoint y="1" as="offset" />
          </mxGeometry>
        </mxCell>
        <mxCell id="_x-ajN5ebLYVBwODIwIi-64" value="at time (t)" style="rounded=1;whiteSpace=wrap;html=1;fontSize=40;fillColor=#d5e8d4;strokeColor=#82b366;fontStyle=1" vertex="1" parent="1">
          <mxGeometry x="-381" y="716" width="1651" height="74" as="geometry" />
        </mxCell>
      </root>
    </mxGraphModel>
  </diagram>
</mxfile>
